<svg version="1.1" id="Слой_1" xmlns="http://www.w3.org/2000/svg" x="0" y="0" viewBox="0 0 151 60.3" xml:space="preserve"><style>.st0{fill:#40a6ab}</style><path class="st0" d="M59.5 25.2l-.3-.8H39l-6.2-19H32l-3.9 11.7-2.3 7.3H5.5l-.3.8 16.4 11.9-6.3 19.2.7.5 16.4-11.9 16.4 11.9.7-.5-6.3-19.2 16.3-11.9zm-29.7-7.1l.1-.2 2.5-7.8v-.5.5l2.7 8.3 2 6.5.1.4.3 1.1h16.9l-13.7 9.9 5.2 16.1-13.7-9.9-13.7 9.9 5.2-16.1L10 26.4h16.9"/><path class="st0" d="M35.9 34.3c-.5 0-1 .2-1.4.5L33 33.7l1.5-1.1c.4.3.8.5 1.4.5 1.2 0 2.2-1 2.2-2.2 0-1.2-1-2.2-2.2-2.2-1.2 0-2.2 1-2.2 2.2 0 .3.1.5.1.7L32 32.9l-5-3.5-1 .7 4.9 3.6-4.9 3.6 1.1.8 4.9-3.6 1.8 1.3c-.1.2-.1.5-.1.7 0 1.2 1 2.2 2.2 2.2 1.2 0 2.2-1 2.2-2.2s-1-2.2-2.2-2.2zm0-4.4c.5 0 1 .4 1 1 0 .5-.4 1-1 1-.5 0-1-.4-1-1s.4-1 1-1zm0 7.6c-.5 0-1-.4-1-1 0-.5.4-1 1-1 .5 0 1 .4 1 1-.1.6-.5 1-1 1z"/><path d="M99.6 24.4l.1-.4zm.1-.4v-.1z" fill="none"/><path d="M80.2 25.3c-.2.5-.6.9-1 1.3s-.9.6-1.4.9c-.5.2-1.1.3-1.8.3h-5.8V11.5H76c.6 0 1.2.1 1.8.3.5.2 1 .5 1.4.9.4.4.7.8 1 1.3.2.5.4 1 .4 1.6v.2c0 .4-.1.8-.2 1.1-.1.4-.3.7-.5 1-.2.3-.5.6-.8.8-.3.2-.6.5-1 .6.4.2.7.4 1 .6.3.2.5.5.8.8.2.3.4.6.5 1 .1.4.2.7.2 1.1v1c-.1.5-.2 1-.4 1.5zm-1.3-9.8c0-.4-.1-.7-.2-1-.2-.3-.4-.6-.6-.8l-.9-.6c-.4-.1-.7-.2-1.1-.2H72v5.6h4c.4 0 .8-.1 1.1-.2.4-.1.7-.3.9-.6.3-.2.5-.5.6-.8.2-.3.2-.7.2-1v-.4zm0 7c0-.4-.1-.7-.2-1-.2-.3-.4-.6-.6-.8l-.9-.6c-.4-.1-.7-.2-1.1-.2H72v6.5h4c.4 0 .8-.1 1.1-.2.4-.1.7-.3.9-.6.3-.2.5-.5.6-.8.2-.3.2-.7.2-1v-1.3zm4.8 5.2V11.5H94v1.4h-8.6v6h7v1.4h-7v6H94v1.4H83.7zm35.5-2.2c-.2.5-.6.9-1 1.3s-.9.6-1.4.9c-.5.2-1.4.3-2 .3h-.7c-.6 0-1.5-.1-2-.3-.5-.2-1-.5-1.4-.9s-.7-.8-1-1.3c-.2-.5-.4-1-.4-1.6V11.5h1.6V24c0 .4.1.7.2 1 .2.3.4.6.6.8l.9.6c.4.1 1 .2 1.4.2h.6c.4 0 1.1-.1 1.4-.2.4-.1.7-.3.9-.6.3-.2.5-.5.6-.8.2-.3.2-.7.2-1V11.5h1.6V24c.3.5.1 1.1-.1 1.5zm8.7-12.6v14.8h-1.6V12.9h-4.4v-1.4h10.4v1.4h-4.4zm11.8 7.1v7.8h-1.6V20l-4.7-8.5h1.8l3.8 6.7 3.8-6.7h1.8l-4.9 8.5zM82.6 47.3c0 .7-.2 1.3-.5 1.9-.3.6-.7 1.1-1.2 1.5-.5.4-1.1.8-1.8 1-.7.3-1.7.4-2.4.4h-1c-.8 0-1.8-.1-2.4-.4-.7-.3-1.3-.6-1.8-1s-.9-1-1.2-1.5c-.3-.6-.5-1.2-.5-1.9v-.8l2-.3v1.1c0 .4.1.9.3 1.2.2.4.5.7.8 1s.7.5 1.2.7c.5.2 1.2.2 1.7.2h.8c.5 0 1.2-.1 1.7-.2.4-.2.8-.4 1.2-.7s.6-.6.8-1c.2-.4.3-.8.3-1.2v-.6c0-.7-.2-1.2-.5-1.7s-.7-.8-1.2-1.2c-.5-.3-1.1-.6-1.7-.8-.6-.2-1.3-.4-1.9-.7-.7-.2-1.3-.5-1.9-.7-.6-.3-1.2-.6-1.7-1s-.9-.9-1.2-1.5c-.4-.5-.5-1.2-.5-2.1v-.4c0-.7.1-1.3.4-1.9.3-.6.7-1.1 1.2-1.5.5-.4 1.1-.8 1.8-1 .7-.3 1.7-.4 2.4-.4h.9c.8 0 1.7.1 2.4.4.7.3 1.2.6 1.7 1s.9 1 1.2 1.5c.3.6.4 1.2.4 1.9v.5l-2 .3v-.8c0-.4-.1-.9-.3-1.2-.2-.4-.4-.7-.8-1-.3-.3-.7-.5-1.1-.7-.4-.2-1.2-.2-1.7-.2h-.7c-.5 0-1.2.1-1.7.2-.4.2-.8.4-1.1.7-.3.3-.6.6-.8 1-.2.4-.3.8-.3 1.2v.4c0 .6.2 1.2.5 1.6.3.4.7.8 1.2 1.1.5.3 1.1.6 1.7.8.6.2 1.3.5 1.9.7.7.2 1.3.5 1.9.8.6.3 1.2.6 1.7 1s.9.9 1.2 1.5c.3.6.5 1.3.5 2.2v.6zm9.7-13.5v18.1h-2V33.8H85v-1.7h12.7v1.7h-5.4zm32.8 18.1l-6.1-8.5h-2v8.5h-2V32.1h6.4c.8 0 1.5.1 2.1.4.7.3 1.2.6 1.7 1s.9 1 1.2 1.6c.3.6.4 1.2.4 1.9v1.6c0 .7-.1 1.3-.4 1.9-.3.6-.7 1.1-1.2 1.6-.5.4-1.1.8-1.7 1-.7.3-1.4.4-2.1.4l6.1 8.5h-2.4zm-.2-15c0-.4-.1-.9-.3-1.2-.2-.4-.4-.7-.8-1-.3-.3-.7-.5-1.1-.7-.4-.2-.9-.2-1.4-.2H117v8h4.3c.5 0 1-.1 1.4-.2.4-.2.8-.4 1.1-.7.3-.3.6-.6.8-1 .2-.4.3-.8.3-1.2v-1.8zM143 47.3c0 .7-.2 1.3-.5 1.9-.3.6-.7 1.1-1.2 1.5-.5.4-1.1.8-1.8 1-.7.3-1.7.4-2.4.4h-1c-.8 0-1.8-.1-2.4-.4-.7-.3-1.3-.6-1.8-1s-.9-1-1.2-1.5c-.3-.6-.5-1.2-.5-1.9v-.8l2-.3v1.1c0 .4.1.9.3 1.2.2.4.5.7.8 1 .3.3.7.5 1.2.7.5.2 1.2.2 1.7.2h.8c.5 0 1.2-.1 1.7-.2.4-.2.8-.4 1.2-.7.3-.3.6-.6.8-1 .2-.4.3-.8.3-1.2v-.6c0-.7-.2-1.2-.5-1.7s-.7-.8-1.2-1.2c-.5-.3-1.1-.6-1.7-.8-.6-.2-1.3-.4-1.9-.7-.7-.2-1.3-.5-1.9-.7-.6-.3-1.2-.6-1.7-1s-.9-.9-1.2-1.5-.5-1.3-.5-2.1v-.4c0-.7.1-1.3.4-1.9.3-.6.7-1.1 1.2-1.5.5-.4 1.1-.8 1.8-1 .7-.3 1.7-.4 2.4-.4h.9c.8 0 1.7.1 2.4.4.7.3 1.2.6 1.7 1s.9 1 1.2 1.5c.3.6.4 1.2.4 1.9v.5l-2 .3v-.8c0-.4-.1-.9-.3-1.2-.2-.4-.4-.7-.8-1-.3-.3-.7-.5-1.1-.7-.4-.2-1.2-.2-1.7-.2h-.7c-.5 0-1.2.1-1.7.2-.4.2-.8.4-1.1.7-.3.3-.6.6-.8 1-.2.4-.3.8-.3 1.2v.4c0 .6.2 1.2.5 1.6.3.4.7.8 1.2 1.1.5.3 1.1.6 1.7.8.6.2 1.3.5 1.9.7.7.2 1.3.5 1.9.8.6.3 1.2.6 1.7 1s.9.9 1.2 1.5c.3.6.5 1.3.5 2.2v.6zm-41.2-35.8h-.9l-3.6 11.1h-3.2V24h2.7l-1.2 3.7h1.7l1.1-3.4.1-.3h3.7l-.4-1.4h-2.9l2.4-7.5.1-.6v.6l3.1 9.4h-.1l1.1 3.2h1.7z" fill="#fff"/><path class="st0" d="M105.9 32.1h-1.1l-4.4 13.5h-4.8v1.7h4.2l-1.5 4.6h2.1l1.3-4.3.1-.3h4.6l-.5-1.7h-3.5l2.9-9.2.1-.7.1.7 3.7 11.5h-.1l1.3 4h2.1z"/></svg>